<svg xmlns="http://www.w3.org/2000/svg" viewBox="0 0 300 200" preserveAspectRatio="xMidYMid slice" role="img" aria-label="Numbers"><rect width="300" height="200" fill="#22C3B5"/>
        <g fill="#fff" fill-opacity=".14"><rect x="4" y="4" width="36" height="44" rx="10"/><rect x="48" y="4" width="36" height="44" rx="10"/><rect x="92" y="4" width="36" height="44" rx="10"/><rect x="136" y="4" width="36" height="44" rx="10"/><rect x="180" y="4" width="36" height="44" rx="10"/><rect x="224" y="4" width="36" height="44" rx="10"/><rect x="268" y="4" width="36" height="44" rx="10"/><rect x="4" y="56" width="36" height="44" rx="10"/><rect x="48" y="56" width="36" height="44" rx="10"/><rect x="92" y="56" width="36" height="44" rx="10"/><rect x="136" y="56" width="36" height="44" rx="10"/><rect x="180" y="56" width="36" height="44" rx="10"/><rect x="224" y="56" width="36" height="44" rx="10"/><rect x="268" y="56" width="36" height="44" rx="10"/><rect x="4" y="108" width="36" height="44" rx="10"/><rect x="48" y="108" width="36" height="44" rx="10"/><rect x="92" y="108" width="36" height="44" rx="10"/><rect x="136" y="108" width="36" height="44" rx="10"/><rect x="180" y="108" width="36" height="44" rx="10"/><rect x="224" y="108" width="36" height="44" rx="10"/><rect x="268" y="108" width="36" height="44" rx="10"/><rect x="4" y="160" width="36" height="44" rx="10"/><rect x="48" y="160" width="36" height="44" rx="10"/><rect x="92" y="160" width="36" height="44" rx="10"/><rect x="136" y="160" width="36" height="44" rx="10"/><rect x="180" y="160" width="36" height="44" rx="10"/><rect x="224" y="160" width="36" height="44" rx="10"/><rect x="268" y="160" width="36" height="44" rx="10"/></g>
    <g transform="rotate(-6 94 101)" stroke="#24124F" stroke-width="5" stroke-linejoin="round" stroke-linecap="round">
      <rect x="36" y="48" width="116" height="130" rx="22" fill="#FF8A3D"/>
      <rect x="36" y="36" width="116" height="130" rx="22" fill="#FFC93C"/>
      <rect x="48" y="45" width="46.400000000000006" height="10" rx="5" fill="#fff" opacity=".4" stroke="none"/>
      <text x="94" y="132.2" text-anchor="middle" font-family="'Baloo Bhaijaan 2', sans-serif" font-weight="800" font-size="110" fill="#fff" stroke="#24124F" stroke-width="6" paint-order="stroke">3</text>
    </g>
    <g transform="rotate(7 216 108)" stroke="#24124F" stroke-width="5" stroke-linejoin="round" stroke-linecap="round">
      <rect x="166" y="64" width="100" height="112" rx="22" fill="#C93A5A"/>
      <rect x="166" y="52" width="100" height="112" rx="22" fill="#FF5E7E"/>
      <rect x="178" y="61" width="40" height="10" rx="5" fill="#fff" opacity=".4" stroke="none"/>
      <text x="216" y="134.88" text-anchor="middle" font-family="'Baloo Bhaijaan 2', sans-serif" font-weight="800" font-size="92" fill="#fff" stroke="#24124F" stroke-width="6" paint-order="stroke">٣</text>
    </g></svg>
